<?xml version="1.0" encoding="UTF-8"?>
<svg id="Layer_1" xmlns="http://www.w3.org/2000/svg" version="1.1" viewBox="0 0 300 300">
  <!-- Generator: Adobe Illustrator 30.0.0, SVG Export Plug-In . SVG Version: 2.1.1 Build 123)  -->
  <defs>
    <style>
      .st0 {
        fill: #c11435;
      }
    </style>
  </defs>
  <g id="Logo">
    <path id="C" class="st0" d="M115.53,160.34c21.67,2.03,68.29-25.73,68.29-25.73l-87.24,60.14-38.71-49.93.41-80.99c.03-4.97,3.52-9.48,8.94-11.54l40.35-15.31h18.2l29.97,17.89,37.05-14.63-43.6,26.94-40.29-25.94h0c-6.52,2.56-10.65,8.06-10.58,14.08l-3.19,79.11"/>
    <path id="S" class="st0" d="M193.5,209.4l-18.51,21.58c-.13.15-.31.23-.5.23l-14.07.08c-.2,0-.4-.09-.52-.25-17.3-21.54-35.02-45.13-37.81-48.85-.21-.28-.61-.35-.9-.15l-55.75,37.89c-.69.47-.07,1.52.67,1.14l38.72-19.7c.29-.15.64-.07.83.19l46.46,61.2c.13.17.32.26.53.26h29.74c.23,0,.44-.11.56-.31,3.19-5.35,38.74-41.53,41.67-44.5.13-.13.19-.3.18-.48l-1.93-69.11c0-.26-.17-.49-.41-.59l-32-13.36c-.21-.09-.46-.06-.64.07l-17.15,12.29c-.43.31-1.04,0-1.05-.52l-1.08-42.36c0-.24.12-.47.33-.59l5.13-2.95c.27-.16.62-.1.82.13l20.76,23c.22.24.57.29.85.12l44.52-27.8c.72-.45.1-1.54-.65-1.16l-27.15,13.83c-.29.15-.64.06-.84-.2l-16.92-23c-.2-.27-.57-.35-.86-.19l-33.8,19.07-15.85,8.23c-.23.12-.37.37-.36.63l4,68.85c.03.51.61.8,1.04.51l23.58-15.95c7.28-4.93,16.43-1.07,16.81,6.75l1.73,35.51c0,.17-.05.34-.16.46Z"/>
  </g>
</svg>