<?xml version="1.0" encoding="UTF-8"?>
<svg id="Layer_5" data-name="Layer 5" xmlns="http://www.w3.org/2000/svg" xmlns:xlink="http://www.w3.org/1999/xlink" viewBox="0 0 249.22 233.38">
  <defs>
    <style>
      .cls-1 {
        fill: white;
      }

      .cls-2 {
        fill: white;
      }

      .cls-3 {
        fill: white;
      }
    </style>
  </defs>
  <path class="cls-2" d="M133.78,26.95c-7.88-.67-15.83-.52-23.69-.03-7.87.5-15.68,1.63-23.33,3.22-15.26,3.18-30.02,8.72-42.17,17.35-3.03,2.16-5.88,4.49-8.54,6.98-2.66,2.5-5.09,5.19-7.12,8.01-2.07,2.8-3.7,5.8-4.89,8.76-1.14,2.99-1.76,5.98-1.85,8.74-.21,5.56,2.06,9.98,4.8,12.13,1.38,1.09,2.82,1.62,4.1,1.78.65.08,1.28.05,1.91-.06.32-.07.63-.13.96-.24.12-.07.94-.29,1.72-.51,1.63-.46,3.46-1.05,5.29-1.62l5.57-1.79c3.75-1.22,7.54-2.46,11.37-3.63,7.66-2.4,15.43-4.48,23.68-5.95,2.07-.38,4.18-.68,6.38-.99,2.24-.25,4.46-.52,7.29-.64.72-.03,1.5-.05,2.42-.04.94.01,1.95.02,3.68.21l.71.1.85.14c.35.07.69.14,1.05.22.46.11.81.21,1.36.38.57.19,1.04.34,1.83.69.4.18.62.27,1.15.55.47.24.93.51,1.37.79.54.34,1.17.8,1.71,1.24.48.38,1.35,1.19,1.92,1.85.69.78,1.04,1.27,1.47,1.91.41.62.78,1.26,1.11,1.92.32.65.45.99.66,1.52.18.49.35.98.49,1.48.16.57.19.74.28,1.14.07.34.14.69.19,1.04.12.79.13,1.12.17,1.65.03.47.04,1.03.03,1.32,0,.35-.02.69-.04,1.04-.02.37-.05.55-.07.83l-.09.76-.1.6c-.28,1.57-.59,2.54-.87,3.44-.28.86-.56,1.6-.83,2.28-.54,1.35-1.07,2.49-1.59,3.58-2.09,4.29-4.17,7.9-6.36,11.49-2.18,3.56-4.34,7.04-6.6,10.43-8.97,13.59-18.51,26.51-28.54,39.13-5,6.31-10.16,12.51-15.44,18.63-5.29,6.11-10.74,12.11-16.5,17.9h0s0,0,0,0c5.83-8.26,11.92-16.32,18.07-24.35l9.33-11.95,9.51-11.81c12.82-15.65,26.02-31.01,40.04-45.82,7.02-7.4,14.21-14.7,21.96-21.63,3.86-3.49,7.89-6.85,12.15-10.13,4.33-3.24,8.75-6.42,14.35-9.2,1.41-.7,2.91-1.37,4.61-1.98,1.7-.61,3.59-1.18,5.97-1.51,1.23-.15,2.51-.26,4.08-.15.36.02.78.06,1.19.12.42.06.8.1,1.25.2.44.09.89.2,1.3.31l.65.19c1.73.51,3.56,1.19,5.51,2.2,1.93,1.02,4.06,2.4,6.04,4.51,1.98,2.08,3.7,4.99,4.51,7.99.84,3.01.85,5.9.54,8.3-.33,2.42-.97,4.43-1.67,6.23-1.42,3.57-3.13,6.33-4.9,8.84-1.77,2.5-3.61,4.72-5.5,6.8-3.76,4.16-7.67,7.81-11.59,11.32l-5.85,5.13c-1.93,1.66-3.87,3.33-5.58,4.88l-1.16,1.07-.4.38s-.06.06-.05.04l.25-.34.16-.24c.1-.15.19-.3.27-.46.11-.2.3-.58.42-.87.24-.64.39-.92.61-2.21.19-.95.32-3.29-1-5.94-1.74-3.07-3.99-4.26-5.77-4.79-.82-.33-2.68-.44-2.21-.4h-.03s-.07,0-.07,0c-.01,0,.09,0,.12,0h.33s1.77-.02,1.77-.02l7.71-.15c5.18-.1,10.47-.16,15.67-.05,4.96.11,10.13,0,15.5.18,5.38.14,11,.48,16.93,1.69,5.89,1.21,12.29,3.41,18.13,7.73,2.9,2.15,5.58,4.8,7.77,7.8,2.18,3,3.85,6.29,5.03,9.59.6,1.65,1.06,3.3,1.45,4.93.2.82.35,1.63.51,2.44.13.81.28,1.57.37,2.48.41,3.46.41,7.14-.19,10.79-.58,3.66-1.84,7.24-3.51,10.44-1.67,3.22-3.79,6.04-6.08,8.44-4.63,4.81-9.82,8.08-14.96,10.66-10.33,5.1-20.79,7.56-31.13,9.29-5.17.87-10.34,1.43-15.5,1.81-5.15.38-10.29.65-15.42.66-10.25.07-20.45-.42-30.54-1.68v-.94c10-1.53,19.9-3.29,29.63-5.45,4.86-1.12,9.69-2.24,14.45-3.56,4.76-1.31,9.44-2.77,14.03-4.32,4.58-1.58,9.05-3.33,13.29-5.34,4.23-1.99,8.29-4.14,11.84-6.63,3.54-2.46,6.55-5.26,8.5-8.08,1-1.39,1.72-2.78,2.16-4.13.45-1.35.68-2.64.67-3.98.01-1.34-.16-2.74-.55-4.24-.37-1.64-.94-3.34-1.59-4.69-1.36-2.78-2.93-4.61-5.16-6.35-2.23-1.73-5.35-3.34-9.17-4.64-3.81-1.3-8.2-2.28-12.83-3.01-4.64-.69-9.53-1.19-14.61-1.56-4.85-.39-9.61-.63-14.49-.62l-3.65.03-3.71.13-2,.07h-.62s-.35.01-.35.01h-.54s-.27-.02-.27-.02c.39.04-1.55-.09-2.44-.43-1.86-.56-4.17-1.79-5.96-4.93-1.35-2.73-1.23-5.14-1.03-6.17.23-1.37.42-1.72.68-2.44.15-.36.37-.81.52-1.08.12-.22.26-.44.39-.66l.29-.44c.36-.52.61-.82.83-1.08l.57-.66c.34-.38.63-.69.91-.98.56-.58,1.05-1.07,1.55-1.55l5.51-5.34c1.76-1.73,3.49-3.45,5.14-5.2,3.32-3.48,6.46-7.01,9.19-10.53,1.35-1.76,2.61-3.51,3.65-5.18,1.02-1.66,1.87-3.27,2.26-4.4.2-.55.25-.97.26-1.04.01-.09-.04.23.12.82.14.58.57,1.26.82,1.5.25.27.3.19.01.03-.27-.16-.79-.41-1.47-.63l-.25-.08c.11.04.26.07.39.09l.33.05.25.02c.32,0,.33,0,.32-.02-.12,0-.67.09-1.34.32-.68.22-1.49.54-2.34.93-3.46,1.61-7.42,4.06-11.25,6.68-3.88,2.63-7.73,5.52-11.6,8.46-3.85,2.97-7.7,6.02-11.52,9.14-3.84,3.1-7.66,6.26-11.45,9.48-15.16,12.87-30.08,26.29-44.9,39.86-14.82,13.57-29.56,27.31-44.4,41.03h0s0,0,0,0c5.07-15.52,11-30.45,17.02-45.28,6.03-14.8,12.37-29.42,18.48-43.81,1.49-3.6,3.04-7.16,4.44-10.69,1.37-3.51,2.79-7.05,3.75-10.09.23-.74.43-1.45.54-1.98.05-.26.08-.47.07-.56-.02-.05-.08-.05-.21.54l-.04.24-.06.39-.04.46c-.02.22-.03.45-.03.67,0,.16,0,.6.02.94.03.4.04.6.13,1.28.04.29.09.57.15.86.07.34.1.45.24.96.12.44.27.88.43,1.3.18.47.3.75.59,1.35.3.6.64,1.2,1.01,1.76.4.59.72,1.02,1.36,1.76.53.62,1.37,1.38,1.79,1.72.49.41,1.07.82,1.56,1.13.39.25.8.49,1.21.7.47.24.64.32.98.47.68.29,1.03.41,1.48.56,1.57.47,2.09.49,2.5.57.74.1.76.1.71.15-.07.04-.29.09-.55.15-1.12.24-2.83.57-4.51.97l-5.34,1.17c-3.66.81-7.44,1.58-11.26,2.32-3.83.7-7.7,1.39-11.62,1.97-3.91.63-7.86,1.2-11.85,1.76l-6.05.85-6.37.83c-1.17.14-2.3.29-4.16.42-1.65.12-3.33.1-4.99-.02-3.34-.25-6.66-.97-9.78-2.16-6.27-2.34-11.58-6.56-15.27-11.58-3.75-5.01-5.89-10.82-6.67-16.51-.77-5.71-.16-11.29,1.29-16.32,1.47-5.04,3.75-9.54,6.44-13.5,2.65-4,5.77-7.43,8.99-10.56,1.61-1.56,3.29-3.02,5-4.39,1.71-1.38,3.42-2.69,5.19-3.94,3.54-2.48,7.22-4.68,11-6.63,15.18-7.75,31.52-11.35,47.63-12.8,8.08-.72,16.15-.77,24.16-.49,8.02.31,15.98,1.07,23.88,2.4l-.14.93Z"/>
  <path class="cls-3" d="M145.22,207.97c-14.7,4.08-17.4,7.38-20.72,25.42-3.32-18.04-6.01-21.34-20.72-25.42,14.7-4.08,17.4-7.38,20.72-25.42,3.32,18.04,6.01,21.34,20.72,25.42Z"/>
  <path class="cls-1" d="M145.22,25.42c-14.7,4.08-17.4,7.38-20.72,25.42-3.32-18.04-6.01-21.34-20.72-25.42C118.49,21.34,121.18,18.04,124.5,0c3.32,18.04,6.01,21.34,20.72,25.42Z"/>
</svg>